<svg xmlns="http://www.w3.org/2000/svg" width="1280" height="720" viewBox="0 0 1280 720">
  <defs>
    <linearGradient id="g" x1="0" y1="0" x2="1" y2="1">
      <stop offset="0%" stop-color="#34d399"/>
      <stop offset="100%" stop-color="#0ea5e9"/>
    </linearGradient>
  </defs>
  <rect width="1280" height="720" fill="#0a0a0f"/>
  <rect width="1280" height="720" fill="url(#g)" opacity="0.3"/>
  <circle cx="1080" cy="140" r="220" fill="#0ea5e9" opacity="0.16"/>
  <circle cx="180" cy="600" r="240" fill="#34d399" opacity="0.14"/>

  <!-- Simplified Arduino Uno board silhouette -->
  <g transform="translate(430,190)">
    <rect x="0" y="0" width="420" height="300" rx="14" fill="#0f2b1f" stroke="#34d399" stroke-opacity="0.6" stroke-width="2"/>
    <rect x="24" y="24" width="372" height="130" rx="6" fill="#0a0a0f" stroke="#0ea5e9" stroke-opacity="0.4"/>
    <rect x="24" y="170" width="120" height="40" rx="4" fill="#0ea5e9" opacity="0.35"/>
    <rect x="160" y="170" width="120" height="40" rx="4" fill="#0ea5e9" opacity="0.35"/>
    <rect x="296" y="170" width="100" height="40" rx="4" fill="#0ea5e9" opacity="0.35"/>
    <g fill="#34d399">
      <circle cx="30" cy="240" r="5"/><circle cx="55" cy="240" r="5"/><circle cx="80" cy="240" r="5"/>
      <circle cx="105" cy="240" r="5"/><circle cx="130" cy="240" r="5"/><circle cx="155" cy="240" r="5"/>
      <circle cx="180" cy="240" r="5"/><circle cx="205" cy="240" r="5"/>
    </g>
    <g fill="#34d399" opacity="0.7">
      <circle cx="30" cy="270" r="5"/><circle cx="55" cy="270" r="5"/><circle cx="80" cy="270" r="5"/>
      <circle cx="105" cy="270" r="5"/><circle cx="130" cy="270" r="5"/><circle cx="155" cy="270" r="5"/>
    </g>
  </g>

  <text x="64" y="640" font-family="Segoe UI, sans-serif" font-size="40" fill="#e5e7eb" opacity="0.85">IoT Environment Monitor</text>
  <text x="64" y="674" font-family="Segoe UI, sans-serif" font-size="22" fill="#e5e7eb" opacity="0.55">Arduino Uno · Concept Preview</text>
</svg>
